<?xml version="1.0" encoding="utf-8"?>
<!-- Generator: Adobe Illustrator 16.0.0, SVG Export Plug-In . SVG Version: 6.00 Build 0)  -->
<!DOCTYPE svg PUBLIC "-//W3C//DTD SVG 1.1//EN" "http://www.w3.org/Graphics/SVG/1.1/DTD/svg11.dtd">
<svg version="1.1" id="Layer_1" xmlns="http://www.w3.org/2000/svg" xmlns:xlink="http://www.w3.org/1999/xlink" x="0px" y="0px"
	 width="200px" height="180px" viewBox="0 0 200 180" enable-background="new 0 0 200 180" xml:space="preserve">
<path fill="#C1282E" stroke="#87171E" stroke-width="3" stroke-miterlimit="10" d="M94.025,4.5c3.3,0,8.7,0,12,0h58.75
	c3.3,0,7.081,1.974,8.402,4.998l23.592,53.754c1.321,3.023,0.613,7.396-1.572,9.867l-89.322,100.948
	c-2.186,2.473-4.809,2.464-5.828,2.464c-1.021,0-3.643-0.038-5.828-2.511L4.916,73.003c-2.186-2.472-2.893-6.974-1.57-9.997
	L26.956,9.5c1.321-3.023,5.104-5,8.403-5H94.025z"/>
<polygon fill="#991B24" points="39,85 64.56,85 96.402,157.114 39,94.931 "/>
<polygon fill="#991B24" points="162,85 137.002,85 104.879,157.114 162,94.931 "/>
<polygon fill="#991B24" points="81.766,85 119.144,85 117.695,98.875 100.89,157.75 83.505,98.992 "/>
<path fill="#821522" d="M124.078,113.516l-19.309,43.349l48.814-53.028C145.141,107.711,135.203,111.273,124.078,113.516z"/>
<path fill="#821522" d="M100.065,115.938c-3.981,0-7.864-0.202-11.639-0.571l12.463,42.259l12.075-42.391
	C108.793,115.686,104.491,115.938,100.065,115.938z"/>
<path fill="#821522" d="M48.108,104.542l48.403,52.322l-19.016-43.068C66.471,111.708,56.578,108.305,48.108,104.542z"/>
<g>
	<path fill="#FFFFFF" d="M40.77,71.605L32.447,25.05h7.36l5.844,36.29l5.886-36.29h7.364L50.43,71.605H40.77z"/>
	<path fill="#FFFFFF" d="M66.396,60.905l-1.707,10.7h-7.312l7.915-46.555h9.66l7.802,46.555h-7.383l-1.643-10.7H66.396z
		 M70.085,35.714l-2.601,18.354h5.202L70.085,35.714z"/>
	<path fill="#FFFFFF" d="M94.667,25.013l9.318,31.313V25.013h7.023v46.592h-7.543L93.805,41.77v29.835h-7.022V25.013H94.667z"/>
	<path fill="#FFFFFF" d="M115.838,44.817h11.416v7.06h-11.416V44.817z"/>
	<path fill="#F3F3F3" d="M139.105,71.605h-7.023V25.05h7.023V71.605z"/>
	<path fill="#F3F3F3" d="M156.42,24.456c3.096,0,5.728,1.09,7.895,3.27c2.168,2.18,3.252,4.806,3.252,7.877v25.415
		c0,3.096-1.091,5.728-3.27,7.895c-2.181,2.168-4.807,3.252-7.877,3.252c-3.098,0-5.723-1.09-7.877-3.271
		c-2.155-2.179-3.233-4.805-3.233-7.876V35.603c0-3.096,1.09-5.728,3.271-7.896C150.759,25.54,153.373,24.456,156.42,24.456z
		 M160.246,35.454c0-1.115-0.39-2.062-1.17-2.842c-0.78-0.781-1.728-1.17-2.843-1.17c-1.114,0-2.068,0.39-2.86,1.17
		c-0.794,0.78-1.188,1.727-1.188,2.842v25.488c0,1.115,0.395,2.062,1.188,2.843c0.792,0.779,1.746,1.17,2.86,1.17
		c1.115,0,2.062-0.391,2.843-1.17c0.78-0.78,1.17-1.728,1.17-2.843V35.454z"/>
</g>
</svg>
